<?xml version="1.0" encoding="UTF-8" standalone="no"?><!DOCTYPE svg PUBLIC "-//W3C//DTD SVG 1.1//EN" "http://www.w3.org/Graphics/SVG/1.1/DTD/svg11.dtd"><svg width="100%" height="100%" viewBox="0 0 16300 3900" version="1.1" xmlns="http://www.w3.org/2000/svg" xmlns:xlink="http://www.w3.org/1999/xlink" xml:space="preserve" style="fill-rule:evenodd;clip-rule:evenodd;stroke-linejoin:round;stroke-miterlimit:1.41421;"><g id="Ebene_x0020_1"><path d="M112,3860l0,-586l52,0l0,586l-52,0Zm149,0l0,-435l45,0l0,60l1,0c24,-47 61,-70 112,-70c74,0 111,39 111,116l0,329l-49,0l0,-315c0,-59 -25,-89 -75,-89c-29,0 -52,10 -70,30c-17,21 -26,48 -26,81l0,293l-49,0Zm383,-71l0,-323l-60,0l0,-41l60,0l0,-121l49,0l0,121l77,0l0,41l-77,0l0,312c0,31 15,46 47,46c9,0 19,-2 30,-5l0,41c-6,3 -18,5 -35,5c-33,0 -57,-5 -71,-16c-14,-11 -20,-31 -20,-60Zm398,-73l49,0c-3,47 -17,85 -42,113c-24,27 -57,41 -98,41c-97,0 -146,-76 -146,-228c0,-152 50,-227 150,-227c48,0 84,17 107,51c22,34 34,88 34,160l0,18l-238,0l0,21c0,109 31,164 92,164c53,0 84,-38 92,-113Zm-184,-113l185,0c-1,-53 -9,-92 -24,-114c-14,-22 -37,-33 -69,-33c-31,0 -54,11 -68,33c-16,24 -24,62 -24,114Zm315,257l0,-435l49,0l0,68l2,0c20,-52 57,-78 109,-78c6,0 12,1 18,2l0,49c-8,-1 -16,-2 -24,-2c-30,0 -54,10 -73,30c-21,23 -32,54 -32,94l0,272l-49,0Zm228,0l0,-435l44,0l0,60l2,0c24,-47 61,-70 111,-70c75,0 112,39 112,116l0,329l-49,0l0,-315c0,-59 -25,-89 -75,-89c-30,0 -53,10 -70,30c-17,21 -26,48 -26,81l0,293l-49,0Zm583,-144l49,0c-4,47 -18,85 -42,113c-24,27 -57,41 -98,41c-97,0 -146,-76 -146,-228c0,-152 50,-227 150,-227c48,0 84,17 106,51c23,34 34,88 34,160l0,18l-238,0l0,21c0,109 31,164 93,164c53,0 84,-38 92,-113Zm-185,-113l186,0c-1,-53 -9,-92 -24,-114c-15,-22 -38,-33 -69,-33c-32,0 -54,11 -68,33c-16,24 -24,62 -25,114Zm334,186l0,-323l-60,0l0,-41l60,0l0,-121l49,0l0,121l77,0l0,41l-77,0l0,312c0,31 15,46 47,46c9,0 19,-2 30,-5l0,41c-6,3 -18,5 -35,5c-33,0 -57,-5 -71,-16c-14,-11 -20,-31 -20,-60Zm554,71l0,-187l-187,0l0,-41l187,0l0,-187l41,0l0,187l187,0l0,41l-187,0l0,187l-41,0Zm510,0l0,-586l52,0l0,307l2,0l224,-307l56,0l-179,245l198,341l-56,0l-175,-297l-70,92l0,205l-52,0Zm372,-218c0,-152 50,-227 150,-227c100,0 150,75 150,227c0,152 -50,228 -150,228c-100,0 -150,-76 -150,-228Zm53,0c0,125 32,187 97,187c65,0 98,-62 98,-187c0,-124 -33,-186 -98,-186c-65,0 -97,62 -97,186Zm323,218l0,-435l44,0l0,60l2,0c22,-47 59,-70 111,-70c26,0 47,7 62,21c16,14 25,32 29,55l1,0c21,-51 57,-76 111,-76c67,0 101,37 101,112l0,333l-49,0l0,-326c0,-52 -23,-78 -68,-78c-13,0 -25,2 -35,8c-11,5 -20,13 -28,23c-8,10 -14,21 -19,35c-5,14 -7,29 -7,45l0,293l-49,0l0,-326c0,-52 -23,-78 -68,-78c-13,0 -25,2 -35,8c-11,5 -20,13 -28,23c-8,10 -14,21 -19,35c-5,14 -7,29 -7,45l0,293l-49,0Zm563,0l0,-435l44,0l0,60l2,0c22,-47 59,-70 110,-70c27,0 48,7 63,21c16,14 25,32 28,55l2,0c20,-51 57,-76 111,-76c67,0 101,37 101,112l0,333l-49,0l0,-326c0,-52 -23,-78 -69,-78c-12,0 -24,2 -34,8c-11,5 -20,13 -28,23c-8,10 -15,21 -19,35c-5,14 -7,29 -7,45l0,293l-49,0l0,-326c0,-52 -23,-78 -69,-78c-12,0 -24,2 -34,8c-11,5 -20,13 -28,23c-8,10 -14,21 -19,35c-5,14 -7,29 -7,45l0,293l-49,0Zm559,-106l0,-329l49,0l0,306c0,35 6,60 18,75c12,15 32,23 58,23c28,0 51,-10 68,-31c18,-20 27,-47 27,-81l0,-292l49,0l0,435l-44,0l0,-61l-2,0c-24,47 -61,71 -111,71c-75,0 -112,-39 -112,-116Zm364,106l0,-435l45,0l0,60l1,0c24,-47 62,-70 112,-70c74,0 112,39 112,116l0,329l-50,0l0,-315c0,-59 -25,-89 -74,-89c-30,0 -53,10 -70,30c-18,21 -26,48 -26,81l0,293l-50,0Zm368,0l0,-435l49,0l0,435l-49,0Zm0,-502l0,-84l49,0l0,84l-49,0Zm143,502l0,-586l49,0l0,367l2,0l169,-216l60,0l-131,161l155,274l-61,0l-129,-230l-65,78l0,152l-49,0Zm379,-306l-49,0c0,-93 44,-139 134,-139c82,0 123,38 123,115l0,258c0,24 9,36 26,36l14,0l0,36c-10,3 -17,5 -23,5c-22,0 -38,-3 -46,-10c-12,-8 -18,-23 -18,-44l0,-15l-1,0c-18,49 -55,74 -113,74c-73,0 -110,-41 -110,-123c0,-64 29,-104 87,-121l93,-26c19,-6 32,-14 37,-24c3,-7 5,-22 5,-45c0,-50 -25,-75 -76,-75c-55,0 -83,33 -83,98Zm159,152l0,-92l-2,0c-4,11 -22,21 -52,29l-41,10c-50,14 -75,44 -75,91c0,26 6,47 19,62c12,15 29,23 50,23c31,0 56,-11 74,-33c18,-22 27,-52 27,-90Zm171,83l0,-323l-59,0l0,-41l59,0l0,-121l50,0l0,121l77,0l0,41l-77,0l0,312c0,31 15,46 46,46c10,0 20,-2 31,-5l0,41c-6,3 -18,5 -35,5c-34,0 -57,-5 -71,-16c-14,-11 -21,-31 -21,-60Zm183,71l0,-435l50,0l0,435l-50,0Zm0,-502l0,-84l50,0l0,84l-50,0Zm125,284c0,-152 50,-227 150,-227c100,0 150,75 150,227c0,152 -50,228 -150,228c-100,0 -150,-76 -150,-228Zm53,0c0,125 32,187 97,187c65,0 98,-62 98,-187c0,-124 -33,-186 -98,-186c-65,0 -97,62 -97,186Zm320,218l0,-435l44,0l0,60l1,0c25,-47 62,-70 112,-70c74,0 112,39 112,116l0,329l-50,0l0,-315c0,-59 -24,-89 -74,-89c-30,0 -53,10 -70,30c-18,21 -26,48 -26,81l0,293l-49,0Z" style="fill:#666;fill-rule:nonzero;"/><path d="M15879,1298l-124,0c-8,0 -14,-6 -14,-14c0,-1 1,-3 1,-4l366,-1228c2,-5 7,-9 13,-9l124,0c7,0 13,6 13,13c0,2 0,3 0,5l-366,1227c-2,6 -7,10 -13,10Z" style="fill:#c3d934;fill-rule:nonzero;"/><path d="M33,1322l144,0c6,0 12,5 13,11l224,842l225,-843c1,-6 7,-10 12,-10l212,0c6,0 11,5 13,11l227,842l225,-843c1,-6 7,-10 13,-10l146,0c7,0 13,6 13,14c0,1 0,2 0,4l-280,1034c-2,6 -7,10 -13,10l-211,0c-7,0 -12,-5 -13,-11l-224,-839l-229,840c-2,6 -7,10 -13,10l-208,0c-6,0 -11,-5 -13,-11l-276,-1034c-1,-7 3,-14 10,-16c1,0 2,-1 3,-1Zm1835,417l560,0l0,-27c0,-47 -5,-87 -13,-118c-8,-31 -20,-54 -36,-70c-15,-16 -39,-28 -71,-36c-34,-8 -75,-12 -126,-12l-71,0c-50,0 -92,4 -125,12c-32,8 -55,20 -71,36c-15,16 -27,39 -35,69c-8,32 -12,72 -12,119l0,27Zm245,659c-159,0 -270,-32 -334,-94c-32,-32 -57,-76 -73,-131c-15,-54 -23,-120 -23,-197l0,-245c0,-77 7,-143 23,-198c16,-55 40,-98 72,-130c33,-32 77,-56 133,-72c55,-15 121,-23 200,-23l71,0c159,0 270,32 335,95c32,32 56,75 72,130c16,55 24,121 24,198l0,156c0,8 -6,14 -13,14l-733,0c0,15 0,30 -1,45l0,30c0,53 4,97 13,131c8,34 19,59 35,75c15,16 39,29 71,37c33,9 75,13 126,13l71,0c46,0 84,-3 115,-9c30,-6 54,-16 70,-28l1,0c16,-12 28,-28 38,-49c10,-22 16,-49 19,-81c0,-6 6,-12 13,-12l160,0c7,0 13,6 13,14l0,1c-4,58 -15,107 -34,149c-19,42 -45,77 -79,103c-34,26 -77,46 -130,59c-52,13 -113,19 -184,19l-71,0Zm965,-629l0,169c0,52 6,97 18,135c12,37 30,67 53,90c24,23 55,40 93,52c39,12 85,17 139,17c49,0 90,-4 122,-13c31,-8 54,-20 68,-36l1,-1c14,-16 26,-43 33,-82c8,-41 12,-94 12,-158l0,-177c0,-65 -4,-117 -12,-158c-8,-40 -19,-68 -34,-84c-14,-16 -37,-28 -68,-36c-32,-9 -73,-13 -122,-13c-54,0 -100,6 -139,17c-38,12 -69,29 -93,52c-23,23 -41,53 -53,90l0,1c-12,37 -18,83 -18,135Zm-179,602l0,-1464c0,-8 5,-13 13,-13l153,0c7,0 13,5 13,13l0,529c9,-13 19,-25 29,-36c21,-22 45,-39 71,-52c27,-14 57,-23 92,-30c35,-6 74,-10 117,-10c75,0 139,8 192,24c54,16 97,40 129,72c32,32 56,75 72,130c15,55 23,120 23,197l0,246c0,76 -8,141 -23,195c-16,55 -40,98 -72,130c-32,32 -75,56 -129,72c-53,16 -117,24 -192,24c-45,0 -86,-4 -122,-11c-37,-7 -69,-18 -96,-33l-1,0c-27,-15 -51,-33 -71,-56c-9,-10 -17,-21 -25,-33l0,106c0,7 -6,13 -13,13l-147,0c-8,0 -13,-6 -13,-13Z" style="fill:#c3d934;"/><path d="M4081,2370l0,-1035c0,-7 6,-13 13,-13l149,0c7,0 13,6 13,13l0,88c6,-9 12,-17 18,-25c18,-21 39,-38 64,-51c24,-13 52,-23 84,-29c31,-7 66,-10 105,-10c117,0 199,29 247,86c25,29 43,69 55,119c11,49 17,109 17,179l0,8c0,7 -6,13 -13,13l-155,0c-8,0 -13,-6 -13,-13l0,-30c0,-80 -12,-132 -36,-158c-12,-13 -29,-22 -51,-29c-23,-6 -53,-10 -88,-10c-41,0 -76,6 -105,18c-28,11 -51,27 -69,49c-18,23 -31,53 -40,91c-9,39 -14,84 -14,138l0,601c0,8 -6,13 -13,13l-155,0c-7,0 -13,-5 -13,-13Zm1121,-631l559,0l0,-27c0,-48 -4,-87 -12,-119c-8,-30 -20,-54 -36,-69c-16,-16 -39,-28 -72,-36c-33,-8 -75,-13 -125,-13l-72,0c-50,0 -91,5 -124,13c-32,8 -56,20 -71,35c-15,16 -27,39 -35,70c-8,32 -12,71 -12,119l0,27Zm244,659c-158,0 -269,-32 -333,-95c-33,-31 -57,-75 -73,-130c-16,-54 -24,-120 -24,-197l0,-245c0,-78 8,-143 24,-198c16,-55 40,-99 72,-131c32,-31 76,-55 132,-71c56,-15 122,-23 200,-23l72,0c158,0 270,31 334,94l1,1c32,32 56,75 72,130c16,54 24,120 24,198l0,156c0,7 -6,13 -13,13l-733,1c0,15 -1,30 -1,45l0,30c0,53 4,96 12,131c8,33 20,58 36,75c15,16 38,29 70,37c34,9 76,13 126,13l72,0c45,0 84,-3 115,-9c30,-7 53,-16 70,-28c16,-12 29,-29 39,-50c9,-22 16,-48 18,-80c1,-7 7,-12 14,-12l160,0c7,0 13,6 13,13l0,2c-4,57 -16,107 -34,149c-19,42 -46,77 -80,103c-33,26 -77,46 -129,58c-52,13 -114,20 -184,20l-72,0Zm1461,-292l0,-109c0,-22 -6,-40 -17,-56c-11,-16 -28,-29 -51,-40c-24,-11 -55,-19 -93,-25c-40,-5 -86,-8 -140,-8c-50,0 -91,3 -123,9c-32,6 -55,15 -70,26c-15,11 -26,28 -34,49c-8,23 -12,51 -12,86c0,39 5,72 13,97c8,25 20,43 36,55c16,12 41,22 75,28c35,7 78,10 131,10c48,0 90,-3 126,-8c35,-6 65,-14 90,-26c24,-10 41,-23 52,-38c11,-14 17,-31 17,-50Zm10,195c-8,9 -17,18 -27,26c-19,17 -43,30 -70,41c-27,10 -58,17 -95,22c-37,5 -78,8 -124,8c-82,0 -150,-6 -205,-18c-57,-12 -100,-30 -129,-55c-29,-25 -51,-60 -66,-105c-14,-45 -21,-99 -21,-164c0,-36 2,-69 5,-98c3,-30 8,-55 15,-77c6,-21 15,-41 27,-59c11,-17 24,-33 40,-46l1,0c13,-12 29,-21 49,-29c19,-8 41,-14 66,-19c25,-4 55,-8 90,-10c35,-2 75,-3 120,-3c48,0 90,2 126,6c37,4 68,10 93,17c26,9 49,19 69,33c9,6 18,14 26,21l0,-142c0,-41 -4,-75 -12,-101c-7,-25 -18,-42 -32,-53c-15,-11 -41,-20 -80,-26c-41,-6 -93,-9 -159,-9c-47,0 -86,3 -117,8c-30,4 -52,11 -67,20c-13,9 -23,21 -30,38c-8,17 -12,38 -12,64c-1,8 -6,13 -14,13l-153,0c-7,0 -13,-6 -13,-13l0,-24c0,-46 8,-86 23,-119c15,-34 38,-61 69,-81l1,0c30,-20 70,-35 121,-45c50,-9 111,-14 182,-14c54,0 103,1 145,3c42,3 78,6 107,11c29,5 55,11 76,18c23,8 42,18 56,29l1,0c16,12 29,26 41,42c11,16 20,33 27,51l0,1c6,19 11,43 14,73c4,31 5,67 5,110l0,724c0,8 -6,13 -13,13l-139,0c-8,0 -13,-5 -13,-13l-4,-69Zm485,69l0,-1464c0,-7 6,-13 13,-13l153,0c7,0 13,6 13,13l0,1464c0,8 -6,13 -13,13l-153,0c-7,0 -13,-5 -13,-13Zm505,-1290l0,-174c0,-7 6,-13 13,-13l153,0c7,0 13,6 13,13l0,174c0,7 -6,13 -13,13l-153,0c-7,0 -13,-6 -13,-13Zm0,1290l0,-1035c0,-7 6,-13 13,-13l153,0c7,0 13,6 13,13l0,1035c0,8 -6,13 -13,13l-153,0c-7,0 -13,-5 -13,-13Zm480,-321l155,0c7,0 13,6 13,13l0,24c0,30 4,55 13,75c9,20 22,35 40,45l0,1c19,11 46,19 83,24c39,6 88,9 147,9c65,0 119,-3 159,-9c38,-5 64,-14 78,-24l1,-1c13,-10 23,-26 29,-47c8,-22 11,-49 11,-83c0,-32 -3,-59 -9,-81c-5,-20 -14,-35 -24,-44c-11,-10 -31,-18 -60,-25c-31,-6 -71,-11 -121,-14c-19,-1 -41,-2 -66,-3c-25,-1 -54,-2 -85,-3c-70,-2 -125,-5 -166,-10c-44,-5 -73,-11 -88,-20c-21,-12 -39,-25 -54,-41c-15,-16 -27,-33 -35,-53c-9,-20 -16,-44 -20,-72c-4,-28 -7,-59 -7,-95c0,-59 8,-108 23,-149c16,-41 39,-73 71,-95l1,0c30,-21 79,-37 144,-48c65,-10 148,-15 247,-15c78,0 143,5 196,15c54,10 96,25 125,45c29,21 51,50 66,86c14,36 22,79 22,129c0,7 -6,13 -14,13l-153,0c-7,0 -13,-6 -13,-13l0,-10c0,-20 -4,-37 -13,-51c-8,-13 -21,-24 -38,-32l-1,0c-19,-8 -47,-14 -85,-18c-38,-5 -87,-7 -146,-7c-56,0 -102,3 -138,8c-34,5 -59,12 -73,22c-13,8 -23,22 -30,42c-7,20 -11,46 -11,78c0,20 1,37 2,50c1,13 3,24 6,31c2,7 6,13 10,18c4,5 9,9 15,12c14,8 38,14 70,18c34,5 77,8 129,9l36,1l27,1c43,2 82,4 115,6c35,2 64,5 89,8c25,2 47,6 64,10c19,4 34,8 45,14l1,0c24,11 44,24 62,40c17,16 31,35 41,56l1,1c10,21 17,46 22,75c5,30 8,63 8,102c0,38 -3,72 -7,102c-5,30 -13,56 -23,77c-10,20 -24,40 -43,59c-17,18 -39,35 -64,50l-1,0c-12,8 -28,15 -47,20c-19,6 -41,10 -67,13c-25,3 -56,6 -91,7c-36,2 -76,3 -121,3c-186,0 -310,-22 -372,-66l-1,-1c-31,-22 -55,-54 -71,-95c-15,-40 -23,-89 -23,-146l0,-28c0,-7 6,-13 14,-13Zm1232,-969l0,-174c0,-7 6,-13 14,-13l153,0c7,0 13,6 13,13l0,174c0,7 -6,13 -13,13l-153,0c-8,0 -14,-6 -14,-13Zm0,1290l0,-1035c0,-7 6,-13 14,-13l153,0c7,0 13,6 13,13l0,1035c0,8 -6,13 -13,13l-153,0c-8,0 -14,-5 -14,-13Zm649,-631l559,0l0,-27c0,-48 -4,-87 -13,-119c-8,-30 -19,-54 -35,-69c-16,-16 -40,-28 -72,-36c-33,-8 -75,-13 -125,-13l-72,0c-50,0 -91,5 -124,13c-32,8 -56,20 -71,35c-16,16 -27,39 -35,70c-8,32 -12,71 -12,119l0,27Zm244,659c-158,0 -269,-32 -334,-95c-32,-31 -56,-75 -72,-130c-16,-54 -24,-120 -24,-197l0,-245c0,-78 8,-143 24,-198c15,-55 40,-99 72,-131c32,-31 76,-55 132,-71c55,-15 122,-23 200,-23l72,0c158,0 270,31 334,94l1,1c32,32 56,75 72,130c16,54 24,120 24,198l0,156c0,7 -6,13 -14,13l-732,1c-1,15 -1,30 -1,45l0,30c0,53 4,96 12,131c8,33 20,58 35,75c16,16 39,29 71,37c33,9 75,13 126,13l72,0c45,0 83,-3 114,-9c31,-7 54,-16 71,-28c16,-12 29,-29 38,-50c10,-22 16,-48 19,-80c1,-7 6,-12 13,-12l160,0c8,0 14,6 14,13l-1,2c-4,57 -15,107 -34,149c-19,42 -45,77 -79,103c-34,26 -77,46 -130,58c-52,13 -113,20 -183,20l-72,0Zm782,-28l0,-1035c0,-7 6,-13 13,-13l149,0c7,0 13,6 13,13l0,88c6,-9 12,-17 19,-25c18,-21 39,-38 63,-51l1,0c24,-13 52,-23 83,-29c31,-7 67,-10 105,-10c117,0 200,29 248,86c24,29 42,69 54,119c12,49 17,109 17,179l0,8c0,7 -6,13 -13,13l-155,0c-7,0 -13,-6 -13,-13l0,-30c0,-80 -12,-132 -36,-158l0,-1c-12,-12 -28,-21 -50,-28c-24,-6 -53,-10 -89,-10c-40,0 -75,6 -104,18c-29,11 -52,27 -69,49c-18,23 -32,53 -41,91c-9,39 -14,84 -14,138l0,601c0,8 -5,13 -13,13l-155,0c-7,0 -13,-5 -13,-13Zm1848,-1035l0,1035c0,8 -6,13 -13,13l-147,0c-8,0 -14,-5 -14,-13l0,-92c-7,11 -16,21 -25,30c-21,20 -47,37 -76,50c-29,14 -62,23 -100,30c-38,6 -80,10 -126,10c-69,0 -127,-8 -176,-22c-50,-14 -89,-36 -118,-65c-29,-29 -50,-69 -64,-118c-14,-49 -21,-109 -21,-178l0,-680c0,-7 6,-13 13,-13l153,0c7,0 13,6 13,13l0,647c0,53 4,96 12,131c8,33 19,57 33,72c14,15 36,27 65,35c30,8 68,12 113,12c52,0 98,-6 136,-18c37,-11 67,-29 90,-52c23,-23 41,-53 53,-90c12,-37 18,-82 18,-134l0,-603c0,-7 6,-13 13,-13l155,0c7,0 13,6 13,13Zm324,1035l0,-1035c0,-7 6,-13 13,-13l147,0c8,0 14,6 14,13l0,94c8,-11 16,-22 26,-31c21,-21 46,-38 75,-51c29,-13 62,-23 99,-29c37,-7 79,-10 125,-10c68,0 127,7 176,21c50,14 89,36 118,65c29,29 50,69 64,119c14,49 21,109 21,179l0,678c0,8 -6,13 -13,13l-153,0c-7,0 -13,-5 -13,-13l0,-645c0,-54 -4,-97 -12,-132c-7,-33 -18,-57 -32,-73c-15,-15 -36,-27 -64,-34c-30,-9 -67,-13 -112,-13c-53,0 -98,6 -137,18c-37,12 -68,30 -91,53c-24,23 -41,53 -53,90c-12,38 -18,83 -18,135l0,601c0,8 -6,13 -14,13l-153,0c-7,0 -13,-5 -13,-13Zm1907,-432l0,-169c0,-53 -6,-98 -18,-136c-12,-37 -30,-67 -53,-90c-24,-23 -55,-40 -93,-52c-39,-12 -85,-18 -139,-18c-49,0 -90,5 -122,14c-31,8 -54,20 -69,37l-1,1c-15,16 -26,43 -34,82c-8,41 -12,93 -12,158l0,177c0,64 4,116 12,157c8,39 19,66 35,83c15,16 38,29 69,37c32,9 73,13 122,13c54,0 100,-6 139,-18c38,-11 69,-28 93,-51c23,-23 41,-53 53,-90c12,-38 18,-83 18,-135Zm179,-603l0,1024c0,77 -7,143 -22,197c-16,55 -40,99 -71,130c-31,32 -75,56 -129,71c-54,15 -119,23 -195,23l-71,0c-69,0 -128,-6 -179,-19c-51,-12 -93,-32 -125,-58c-33,-26 -59,-60 -78,-103c-18,-42 -30,-92 -34,-150c0,-8 5,-14 12,-14l158,0c8,0 13,5 14,12c3,32 9,58 19,80c9,21 21,37 37,48l0,1c16,11 38,20 67,26c30,7 67,10 111,10l69,0c44,0 82,-4 113,-11c30,-7 54,-17 72,-31c18,-13 31,-31 39,-53c9,-22 14,-49 14,-81l0,-166c-9,12 -18,24 -28,35c-21,21 -45,39 -71,52c-26,13 -57,23 -92,30c-35,6 -74,10 -118,10c-75,0 -139,-8 -192,-24c-55,-16 -98,-40 -129,-72l-1,-1c-32,-32 -55,-75 -71,-129c-15,-54 -23,-120 -23,-196l0,-246c0,-76 8,-142 23,-196c16,-55 40,-98 72,-130c31,-33 74,-57 129,-73c53,-15 117,-23 192,-23c45,0 86,4 122,11c36,7 68,18 96,33c28,15 52,34 72,57c9,10 17,21 25,33l0,-107c0,-7 6,-13 13,-13l147,0c8,0 13,6 13,13Z" style="fill:#666;"/></g></svg>